<mxfile host="app.diagrams.net" modified="2024-03-11T22:40:13.897Z" agent="Mozilla/5.0 (Windows NT 10.0; Win64; x64) AppleWebKit/537.36 (KHTML, like Gecko) Chrome/122.0.0.0 Safari/537.36" etag="GUjHIXi5PrM1ijWEHXJl" version="24.0.2" type="device">
  <diagram id="C5RBs43oDa-KdzZeNtuy" name="Page-1">
    <mxGraphModel dx="3138" dy="2078" grid="1" gridSize="10" guides="1" tooltips="1" connect="1" arrows="1" fold="1" page="1" pageScale="1" pageWidth="827" pageHeight="1169" math="0" shadow="0">
      <root>
        <mxCell id="WIyWlLk6GJQsqaUBKTNV-0" />
        <mxCell id="WIyWlLk6GJQsqaUBKTNV-1" parent="WIyWlLk6GJQsqaUBKTNV-0" />
        <mxCell id="HU0YTLcC9x-UcdVmA8kI-1" style="edgeStyle=orthogonalEdgeStyle;rounded=0;orthogonalLoop=1;jettySize=auto;html=1;exitX=1;exitY=0.5;exitDx=0;exitDy=0;entryX=0;entryY=0.5;entryDx=0;entryDy=0;" parent="WIyWlLk6GJQsqaUBKTNV-1" source="WIyWlLk6GJQsqaUBKTNV-6" target="HU0YTLcC9x-UcdVmA8kI-0" edge="1">
          <mxGeometry relative="1" as="geometry" />
        </mxCell>
        <mxCell id="HU0YTLcC9x-UcdVmA8kI-40" style="edgeStyle=orthogonalEdgeStyle;rounded=0;orthogonalLoop=1;jettySize=auto;html=1;entryX=1;entryY=0.5;entryDx=0;entryDy=0;" parent="WIyWlLk6GJQsqaUBKTNV-1" source="WIyWlLk6GJQsqaUBKTNV-6" target="HU0YTLcC9x-UcdVmA8kI-17" edge="1">
          <mxGeometry relative="1" as="geometry" />
        </mxCell>
        <mxCell id="WIyWlLk6GJQsqaUBKTNV-6" value="isUserRegistered?" style="rhombus;whiteSpace=wrap;html=1;shadow=0;fontFamily=Helvetica;fontSize=12;align=center;strokeWidth=1;spacing=6;spacingTop=-4;" parent="WIyWlLk6GJQsqaUBKTNV-1" vertex="1">
          <mxGeometry x="150" y="-190" width="130" height="80" as="geometry" />
        </mxCell>
        <mxCell id="HU0YTLcC9x-UcdVmA8kI-45" style="edgeStyle=orthogonalEdgeStyle;rounded=0;orthogonalLoop=1;jettySize=auto;html=1;entryX=0.75;entryY=1;entryDx=0;entryDy=0;" parent="WIyWlLk6GJQsqaUBKTNV-1" source="HU0YTLcC9x-UcdVmA8kI-0" target="HU0YTLcC9x-UcdVmA8kI-17" edge="1">
          <mxGeometry relative="1" as="geometry">
            <Array as="points">
              <mxPoint x="400" y="10" />
              <mxPoint x="50" y="10" />
            </Array>
          </mxGeometry>
        </mxCell>
        <mxCell id="HU0YTLcC9x-UcdVmA8kI-0" value="Registration" style="rounded=0;whiteSpace=wrap;html=1;" parent="WIyWlLk6GJQsqaUBKTNV-1" vertex="1">
          <mxGeometry x="340" y="180" width="120" height="60" as="geometry" />
        </mxCell>
        <mxCell id="HU0YTLcC9x-UcdVmA8kI-7" value="" style="edgeStyle=orthogonalEdgeStyle;rounded=0;orthogonalLoop=1;jettySize=auto;html=1;" parent="WIyWlLk6GJQsqaUBKTNV-1" source="HU0YTLcC9x-UcdVmA8kI-4" target="HU0YTLcC9x-UcdVmA8kI-6" edge="1">
          <mxGeometry relative="1" as="geometry" />
        </mxCell>
        <mxCell id="HU0YTLcC9x-UcdVmA8kI-4" value="Buy Policy" style="whiteSpace=wrap;html=1;rounded=0;" parent="WIyWlLk6GJQsqaUBKTNV-1" vertex="1">
          <mxGeometry x="540" y="320" width="120" height="60" as="geometry" />
        </mxCell>
        <mxCell id="HU0YTLcC9x-UcdVmA8kI-9" value="" style="edgeStyle=orthogonalEdgeStyle;rounded=0;orthogonalLoop=1;jettySize=auto;html=1;" parent="WIyWlLk6GJQsqaUBKTNV-1" source="HU0YTLcC9x-UcdVmA8kI-6" target="HU0YTLcC9x-UcdVmA8kI-8" edge="1">
          <mxGeometry relative="1" as="geometry" />
        </mxCell>
        <mxCell id="HU0YTLcC9x-UcdVmA8kI-6" value="Update Premium Payment Date" style="whiteSpace=wrap;html=1;rounded=0;" parent="WIyWlLk6GJQsqaUBKTNV-1" vertex="1">
          <mxGeometry x="540" y="460" width="120" height="60" as="geometry" />
        </mxCell>
        <mxCell id="HU0YTLcC9x-UcdVmA8kI-12" value="" style="edgeStyle=orthogonalEdgeStyle;rounded=0;orthogonalLoop=1;jettySize=auto;html=1;" parent="WIyWlLk6GJQsqaUBKTNV-1" source="HU0YTLcC9x-UcdVmA8kI-8" target="HU0YTLcC9x-UcdVmA8kI-11" edge="1">
          <mxGeometry relative="1" as="geometry" />
        </mxCell>
        <mxCell id="HU0YTLcC9x-UcdVmA8kI-8" value="Apply Claim" style="whiteSpace=wrap;html=1;rounded=0;" parent="WIyWlLk6GJQsqaUBKTNV-1" vertex="1">
          <mxGeometry x="340" y="460" width="120" height="60" as="geometry" />
        </mxCell>
        <mxCell id="LSjNqxh59rbGJ79Qmgsf-6" style="edgeStyle=orthogonalEdgeStyle;rounded=0;orthogonalLoop=1;jettySize=auto;html=1;entryX=1;entryY=0.5;entryDx=0;entryDy=0;" edge="1" parent="WIyWlLk6GJQsqaUBKTNV-1" source="HU0YTLcC9x-UcdVmA8kI-11" target="HU0YTLcC9x-UcdVmA8kI-32">
          <mxGeometry relative="1" as="geometry" />
        </mxCell>
        <mxCell id="HU0YTLcC9x-UcdVmA8kI-11" value="Check Claim Status" style="whiteSpace=wrap;html=1;rounded=0;" parent="WIyWlLk6GJQsqaUBKTNV-1" vertex="1">
          <mxGeometry x="340" y="600" width="120" height="60" as="geometry" />
        </mxCell>
        <mxCell id="HU0YTLcC9x-UcdVmA8kI-21" value="" style="edgeStyle=orthogonalEdgeStyle;rounded=0;orthogonalLoop=1;jettySize=auto;html=1;" parent="WIyWlLk6GJQsqaUBKTNV-1" source="HU0YTLcC9x-UcdVmA8kI-17" target="HU0YTLcC9x-UcdVmA8kI-20" edge="1">
          <mxGeometry relative="1" as="geometry" />
        </mxCell>
        <mxCell id="HU0YTLcC9x-UcdVmA8kI-17" value="Login" style="rounded=0;whiteSpace=wrap;html=1;" parent="WIyWlLk6GJQsqaUBKTNV-1" vertex="1">
          <mxGeometry x="-40" y="70" width="120" height="60" as="geometry" />
        </mxCell>
        <mxCell id="HU0YTLcC9x-UcdVmA8kI-23" value="" style="edgeStyle=orthogonalEdgeStyle;rounded=0;orthogonalLoop=1;jettySize=auto;html=1;" parent="WIyWlLk6GJQsqaUBKTNV-1" source="HU0YTLcC9x-UcdVmA8kI-20" target="HU0YTLcC9x-UcdVmA8kI-22" edge="1">
          <mxGeometry relative="1" as="geometry" />
        </mxCell>
        <mxCell id="HU0YTLcC9x-UcdVmA8kI-26" value="" style="edgeStyle=orthogonalEdgeStyle;rounded=0;orthogonalLoop=1;jettySize=auto;html=1;" parent="WIyWlLk6GJQsqaUBKTNV-1" source="HU0YTLcC9x-UcdVmA8kI-20" target="HU0YTLcC9x-UcdVmA8kI-25" edge="1">
          <mxGeometry relative="1" as="geometry" />
        </mxCell>
        <mxCell id="HU0YTLcC9x-UcdVmA8kI-20" value="isAdmin?" style="rhombus;whiteSpace=wrap;html=1;rounded=0;" parent="WIyWlLk6GJQsqaUBKTNV-1" vertex="1">
          <mxGeometry x="-20" y="200" width="80" height="80" as="geometry" />
        </mxCell>
        <mxCell id="HU0YTLcC9x-UcdVmA8kI-31" value="" style="edgeStyle=orthogonalEdgeStyle;rounded=0;orthogonalLoop=1;jettySize=auto;html=1;" parent="WIyWlLk6GJQsqaUBKTNV-1" source="HU0YTLcC9x-UcdVmA8kI-22" target="HU0YTLcC9x-UcdVmA8kI-30" edge="1">
          <mxGeometry relative="1" as="geometry" />
        </mxCell>
        <mxCell id="HU0YTLcC9x-UcdVmA8kI-22" value="isTPA?" style="rhombus;whiteSpace=wrap;html=1;rounded=0;" parent="WIyWlLk6GJQsqaUBKTNV-1" vertex="1">
          <mxGeometry x="-180" y="200" width="80" height="80" as="geometry" />
        </mxCell>
        <mxCell id="HU0YTLcC9x-UcdVmA8kI-24" value="No" style="text;html=1;align=center;verticalAlign=middle;resizable=0;points=[];autosize=1;strokeColor=none;fillColor=none;" parent="WIyWlLk6GJQsqaUBKTNV-1" vertex="1">
          <mxGeometry x="-80" y="208" width="40" height="30" as="geometry" />
        </mxCell>
        <mxCell id="HU0YTLcC9x-UcdVmA8kI-28" value="" style="edgeStyle=orthogonalEdgeStyle;rounded=0;orthogonalLoop=1;jettySize=auto;html=1;" parent="WIyWlLk6GJQsqaUBKTNV-1" source="HU0YTLcC9x-UcdVmA8kI-25" target="HU0YTLcC9x-UcdVmA8kI-27" edge="1">
          <mxGeometry relative="1" as="geometry" />
        </mxCell>
        <mxCell id="HU0YTLcC9x-UcdVmA8kI-25" value="Create Policy" style="rounded=0;whiteSpace=wrap;html=1;" parent="WIyWlLk6GJQsqaUBKTNV-1" vertex="1">
          <mxGeometry x="-40" y="370" width="120" height="60" as="geometry" />
        </mxCell>
        <mxCell id="HU0YTLcC9x-UcdVmA8kI-34" style="edgeStyle=orthogonalEdgeStyle;rounded=0;orthogonalLoop=1;jettySize=auto;html=1;" parent="WIyWlLk6GJQsqaUBKTNV-1" source="HU0YTLcC9x-UcdVmA8kI-27" target="HU0YTLcC9x-UcdVmA8kI-32" edge="1">
          <mxGeometry relative="1" as="geometry" />
        </mxCell>
        <mxCell id="HU0YTLcC9x-UcdVmA8kI-27" value="Reimburse Claim" style="rounded=0;whiteSpace=wrap;html=1;" parent="WIyWlLk6GJQsqaUBKTNV-1" vertex="1">
          <mxGeometry x="-40" y="510" width="120" height="60" as="geometry" />
        </mxCell>
        <mxCell id="LSjNqxh59rbGJ79Qmgsf-3" style="edgeStyle=orthogonalEdgeStyle;rounded=0;orthogonalLoop=1;jettySize=auto;html=1;entryX=0;entryY=0.5;entryDx=0;entryDy=0;" edge="1" parent="WIyWlLk6GJQsqaUBKTNV-1" source="HU0YTLcC9x-UcdVmA8kI-30" target="HU0YTLcC9x-UcdVmA8kI-32">
          <mxGeometry relative="1" as="geometry">
            <Array as="points">
              <mxPoint x="-110" y="670" />
            </Array>
          </mxGeometry>
        </mxCell>
        <mxCell id="HU0YTLcC9x-UcdVmA8kI-30" value="Approve/Reject the claim" style="rounded=0;whiteSpace=wrap;html=1;" parent="WIyWlLk6GJQsqaUBKTNV-1" vertex="1">
          <mxGeometry x="-200" y="370" width="120" height="60" as="geometry" />
        </mxCell>
        <mxCell id="HU0YTLcC9x-UcdVmA8kI-32" value="Stop" style="ellipse;whiteSpace=wrap;html=1;" parent="WIyWlLk6GJQsqaUBKTNV-1" vertex="1">
          <mxGeometry x="90" y="630" width="120" height="80" as="geometry" />
        </mxCell>
        <mxCell id="HU0YTLcC9x-UcdVmA8kI-49" style="edgeStyle=orthogonalEdgeStyle;rounded=0;orthogonalLoop=1;jettySize=auto;html=1;entryX=0.5;entryY=0;entryDx=0;entryDy=0;" parent="WIyWlLk6GJQsqaUBKTNV-1" source="HU0YTLcC9x-UcdVmA8kI-37" target="WIyWlLk6GJQsqaUBKTNV-6" edge="1">
          <mxGeometry relative="1" as="geometry" />
        </mxCell>
        <mxCell id="HU0YTLcC9x-UcdVmA8kI-37" value="Start" style="ellipse;whiteSpace=wrap;html=1;" parent="WIyWlLk6GJQsqaUBKTNV-1" vertex="1">
          <mxGeometry x="125" y="-320" width="180" height="80" as="geometry" />
        </mxCell>
        <mxCell id="HU0YTLcC9x-UcdVmA8kI-38" value="No" style="text;html=1;align=center;verticalAlign=middle;resizable=0;points=[];autosize=1;strokeColor=none;fillColor=none;" parent="WIyWlLk6GJQsqaUBKTNV-1" vertex="1">
          <mxGeometry x="300" y="178" width="40" height="30" as="geometry" />
        </mxCell>
        <mxCell id="HU0YTLcC9x-UcdVmA8kI-43" value="Yes" style="text;html=1;align=center;verticalAlign=middle;resizable=0;points=[];autosize=1;strokeColor=none;fillColor=none;" parent="WIyWlLk6GJQsqaUBKTNV-1" vertex="1">
          <mxGeometry x="-170" y="288" width="40" height="30" as="geometry" />
        </mxCell>
        <mxCell id="HU0YTLcC9x-UcdVmA8kI-44" value="Yes" style="text;html=1;align=center;verticalAlign=middle;resizable=0;points=[];autosize=1;strokeColor=none;fillColor=none;" parent="WIyWlLk6GJQsqaUBKTNV-1" vertex="1">
          <mxGeometry x="30" y="298" width="40" height="30" as="geometry" />
        </mxCell>
        <mxCell id="HU0YTLcC9x-UcdVmA8kI-47" style="edgeStyle=orthogonalEdgeStyle;rounded=0;orthogonalLoop=1;jettySize=auto;html=1;entryX=0.896;entryY=0.021;entryDx=0;entryDy=0;entryPerimeter=0;" parent="WIyWlLk6GJQsqaUBKTNV-1" source="HU0YTLcC9x-UcdVmA8kI-22" target="HU0YTLcC9x-UcdVmA8kI-4" edge="1">
          <mxGeometry relative="1" as="geometry">
            <Array as="points">
              <mxPoint x="-140" y="-70" />
              <mxPoint x="648" y="-70" />
            </Array>
          </mxGeometry>
        </mxCell>
        <mxCell id="LSjNqxh59rbGJ79Qmgsf-4" value="Yes" style="text;html=1;align=center;verticalAlign=middle;resizable=0;points=[];autosize=1;strokeColor=none;fillColor=none;" vertex="1" parent="WIyWlLk6GJQsqaUBKTNV-1">
          <mxGeometry x="101" y="-182" width="40" height="30" as="geometry" />
        </mxCell>
        <mxCell id="LSjNqxh59rbGJ79Qmgsf-5" value="No" style="text;html=1;align=center;verticalAlign=middle;resizable=0;points=[];autosize=1;strokeColor=none;fillColor=none;" vertex="1" parent="WIyWlLk6GJQsqaUBKTNV-1">
          <mxGeometry x="-190" y="158" width="40" height="30" as="geometry" />
        </mxCell>
      </root>
    </mxGraphModel>
  </diagram>
</mxfile>
